<svg width="217" height="40" viewBox="0 0 217 40" fill="none" xmlns="http://www.w3.org/2000/svg">
<path d="M97.9504 22.848V20.16C97.9504 18.6027 98.2064 17.312 98.7184 16.288C99.2304 15.2427 99.9664 14.3893 100.926 13.728C101.908 13.0453 103.102 12.4907 104.51 12.064L106.654 11.392C107.444 11.136 108.105 10.8267 108.638 10.464C109.172 10.08 109.577 9.62133 109.854 9.088C110.153 8.55466 110.302 7.94666 110.302 7.264V7.136C110.302 6.06933 109.94 5.22666 109.214 4.608C108.489 3.968 107.497 3.648 106.238 3.648C105.001 3.648 103.998 3.98933 103.23 4.672C102.484 5.33333 102.11 6.29333 102.11 7.552V8.128H98.0144V7.616C98.0144 5.99466 98.3771 4.61866 99.1024 3.488C99.8277 2.35733 100.809 1.49333 102.046 0.895995C103.305 0.298662 104.702 -4.80643e-06 106.238 -4.80643e-06C107.774 -4.80643e-06 109.161 0.298662 110.398 0.895995C111.636 1.472 112.606 2.29333 113.31 3.36C114.036 4.40533 114.398 5.64266 114.398 7.072V7.392C114.398 8.82133 114.1 10.0373 113.502 11.04C112.926 12.0213 112.137 12.832 111.134 13.472C110.132 14.0907 108.99 14.6027 107.71 15.008L105.662 15.648C104.745 15.9253 104.03 16.2347 103.518 16.576C103.006 16.896 102.644 17.2587 102.43 17.664C102.238 18.048 102.142 18.5173 102.142 19.072V19.2H114.206V22.848H97.9504Z" fill="#22C55E"/>
<path d="M0 39.2278V5.62784H13.344C15.392 5.62784 17.216 6.04385 18.816 6.87585C20.448 7.67585 21.712 8.82785 22.608 10.3318C23.536 11.8038 24 13.5798 24 15.6598V16.2838C24 18.3638 23.52 20.1558 22.56 21.6598C21.632 23.1638 20.368 24.3158 18.768 25.1158C17.168 25.9158 15.36 26.3158 13.344 26.3158H5.184V39.2278H0ZM5.184 21.6118H12.816C14.64 21.6118 16.096 21.1318 17.184 20.1718C18.272 19.2118 18.816 17.8998 18.816 16.2358V15.7558C18.816 14.0598 18.272 12.7318 17.184 11.7718C16.096 10.8118 14.64 10.3318 12.816 10.3318H5.184V21.6118Z" fill="#EF4444"/>
<path d="M35.8942 39.8998C34.1982 39.8998 32.6782 39.6119 31.3342 39.0359C30.0222 38.4599 28.9663 37.6118 28.1663 36.4918C27.3983 35.3718 27.0142 34.0118 27.0142 32.4118C27.0142 30.7799 27.3983 29.4358 28.1663 28.3798C28.9663 27.2918 30.0382 26.4758 31.3822 25.9318C32.7582 25.3878 34.3102 25.1158 36.0382 25.1158H43.2383V23.5798C43.2383 22.2038 42.8223 21.0998 41.9902 20.2678C41.1582 19.4358 39.8782 19.0198 38.1502 19.0198C36.4542 19.0198 35.1582 19.4198 34.2622 20.2198C33.3662 21.0198 32.7743 22.0598 32.4863 23.3398L27.8783 21.8518C28.2623 20.5718 28.8702 19.4198 29.7022 18.3958C30.5662 17.3398 31.7022 16.4918 33.1102 15.8518C34.5182 15.2118 36.2142 14.8918 38.1982 14.8918C41.2703 14.8918 43.6863 15.6758 45.4463 17.2438C47.2063 18.8118 48.0863 21.0358 48.0863 23.9158V33.6599C48.0863 34.6199 48.5343 35.0998 49.4303 35.0998H51.4463V39.2278H47.7503C46.6303 39.2278 45.7183 38.9398 45.0143 38.3638C44.3103 37.7878 43.9583 37.0038 43.9583 36.0118V35.8679H43.2383C42.9823 36.3479 42.5983 36.9079 42.0863 37.5479C41.5743 38.1879 40.8222 38.7478 39.8302 39.2278C38.8382 39.6758 37.5262 39.8998 35.8942 39.8998ZM36.6143 35.8199C38.5983 35.8199 40.1982 35.2599 41.4142 34.1399C42.6302 32.9879 43.2383 31.4198 43.2383 29.4358V28.9558H36.3262C35.0142 28.9558 33.9582 29.2438 33.1582 29.8198C32.3582 30.3638 31.9583 31.1798 31.9583 32.2678C31.9583 33.3558 32.3742 34.2198 33.2062 34.8598C34.0382 35.4998 35.1743 35.8199 36.6143 35.8199Z" fill="#EF4444"/>
<path d="M56.2534 39.2278V15.5638H61.1974V39.2278H56.2534ZM58.7494 12.3478C57.7894 12.3478 56.9734 12.0438 56.3014 11.4358C55.6614 10.7958 55.3414 9.97985 55.3414 8.98785C55.3414 7.99585 55.6614 7.19585 56.3014 6.58785C56.9734 5.94785 57.7894 5.62784 58.7494 5.62784C59.7414 5.62784 60.5574 5.94785 61.1974 6.58785C61.8374 7.19585 62.1574 7.99585 62.1574 8.98785C62.1574 9.97985 61.8374 10.7958 61.1974 11.4358C60.5574 12.0438 59.7414 12.3478 58.7494 12.3478Z" fill="#EF4444"/>
<path d="M68.5346 39.2278V15.5638H73.3826V19.1158H74.1506C74.5986 18.1558 75.3986 17.2598 76.5506 16.4278C77.7026 15.5958 79.4146 15.1798 81.6866 15.1798C83.4786 15.1798 85.0626 15.5798 86.4386 16.3798C87.8466 17.1798 88.9506 18.3158 89.7506 19.7878C90.5506 21.2278 90.9506 22.9718 90.9506 25.0198V39.2278H86.0066V25.4038C86.0066 23.3558 85.4946 21.8518 84.4706 20.8918C83.4466 19.8998 82.0386 19.4038 80.2466 19.4038C78.1986 19.4038 76.5506 20.0758 75.3026 21.4198C74.0866 22.7638 73.4786 24.7158 73.4786 27.2758V39.2278H68.5346Z" fill="#EF4444"/>
<path d="M134.055 39.8998C131.655 39.8998 129.511 39.3878 127.623 38.3638C125.735 37.3078 124.247 35.7718 123.159 33.7558C122.071 31.7398 121.527 29.2758 121.527 26.3638V18.4918C121.527 14.1078 122.727 10.7638 125.127 8.45985C127.527 6.12385 130.775 4.95584 134.871 4.95584C138.903 4.95584 142.007 6.05985 144.183 8.26785C146.359 10.4438 147.447 13.3718 147.447 17.0518V17.2918H142.311V16.9078C142.311 15.5318 142.039 14.2998 141.495 13.2118C140.951 12.0918 140.135 11.2118 139.047 10.5718C137.959 9.93185 136.567 9.61185 134.871 9.61185C132.311 9.61185 130.311 10.3958 128.871 11.9638C127.431 13.4998 126.711 15.6438 126.711 18.3958V26.4598C126.711 29.1798 127.431 31.3398 128.871 32.9398C130.311 34.5079 132.327 35.2919 134.919 35.2919C137.479 35.2919 139.351 34.5879 140.535 33.1799C141.719 31.7719 142.311 29.9478 142.311 27.7078V27.0838H133.287V22.6198H147.447V39.2278H142.647V35.8199H141.879C141.591 36.4279 141.159 37.0518 140.583 37.6918C140.039 38.3318 139.239 38.8598 138.183 39.2758C137.159 39.6918 135.783 39.8998 134.055 39.8998Z" fill="#22C55E"/>
<path d="M161.613 39.8998C159.917 39.8998 158.397 39.6119 157.053 39.0359C155.741 38.4599 154.685 37.6118 153.885 36.4918C153.117 35.3718 152.733 34.0118 152.733 32.4118C152.733 30.7799 153.117 29.4358 153.885 28.3798C154.685 27.2918 155.757 26.4758 157.101 25.9318C158.477 25.3878 160.029 25.1158 161.757 25.1158H168.957V23.5798C168.957 22.2038 168.541 21.0998 167.709 20.2678C166.877 19.4358 165.597 19.0198 163.869 19.0198C162.173 19.0198 160.877 19.4198 159.981 20.2198C159.085 21.0198 158.493 22.0598 158.205 23.3398L153.597 21.8518C153.981 20.5718 154.589 19.4198 155.421 18.3958C156.285 17.3398 157.421 16.4918 158.829 15.8518C160.237 15.2118 161.933 14.8918 163.917 14.8918C166.989 14.8918 169.405 15.6758 171.165 17.2438C172.925 18.8118 173.805 21.0358 173.805 23.9158V33.6599C173.805 34.6199 174.253 35.0998 175.149 35.0998H177.165V39.2278H173.469C172.349 39.2278 171.437 38.9398 170.733 38.3638C170.029 37.7878 169.677 37.0038 169.677 36.0118V35.8679H168.957C168.701 36.3479 168.317 36.9079 167.805 37.5479C167.293 38.1879 166.541 38.7478 165.549 39.2278C164.557 39.6758 163.245 39.8998 161.613 39.8998ZM162.333 35.8199C164.317 35.8199 165.917 35.2599 167.133 34.1399C168.349 32.9879 168.957 31.4198 168.957 29.4358V28.9558H162.045C160.733 28.9558 159.677 29.2438 158.877 29.8198C158.077 30.3638 157.677 31.1798 157.677 32.2678C157.677 33.3558 158.093 34.2198 158.925 34.8598C159.757 35.4998 160.893 35.8199 162.333 35.8199Z" fill="#22C55E"/>
<path d="M181.972 39.2278V15.5638H186.916V39.2278H181.972ZM184.468 12.3478C183.508 12.3478 182.692 12.0438 182.02 11.4358C181.38 10.7958 181.06 9.97985 181.06 8.98785C181.06 7.99585 181.38 7.19585 182.02 6.58785C182.692 5.94785 183.508 5.62784 184.468 5.62784C185.46 5.62784 186.276 5.94785 186.916 6.58785C187.556 7.19585 187.876 7.99585 187.876 8.98785C187.876 9.97985 187.556 10.7958 186.916 11.4358C186.276 12.0438 185.46 12.3478 184.468 12.3478Z" fill="#22C55E"/>
<path d="M194.253 39.2278V15.5638H199.101V19.1158H199.869C200.317 18.1558 201.117 17.2598 202.269 16.4278C203.421 15.5958 205.133 15.1798 207.405 15.1798C209.197 15.1798 210.781 15.5798 212.157 16.3798C213.565 17.1798 214.669 18.3158 215.469 19.7878C216.269 21.2278 216.669 22.9718 216.669 25.0198V39.2278H211.725V25.4038C211.725 23.3558 211.213 21.8518 210.189 20.8918C209.165 19.8998 207.757 19.4038 205.965 19.4038C203.917 19.4038 202.269 20.0758 201.021 21.4198C199.805 22.7638 199.197 24.7158 199.197 27.2758V39.2278H194.253Z" fill="#22C55E"/>
</svg>
