<svg width="217" height="40" viewBox="0 0 217 40" fill="none" xmlns="http://www.w3.org/2000/svg">
<mask id="path-1-inside-1_1541_2" fill="white">
<path d="M97.9504 22.848V20.16C97.9504 18.6027 98.2064 17.312 98.7184 16.288C99.2304 15.2427 99.9664 14.3893 100.926 13.728C101.908 13.0453 103.102 12.4907 104.51 12.064L106.654 11.392C107.444 11.136 108.105 10.8267 108.638 10.464C109.172 10.08 109.577 9.62133 109.854 9.088C110.153 8.55467 110.302 7.94667 110.302 7.264V7.136C110.302 6.06933 109.94 5.22667 109.214 4.608C108.489 3.968 107.497 3.648 106.238 3.648C105.001 3.648 103.998 3.98933 103.23 4.672C102.484 5.33333 102.11 6.29333 102.11 7.552V8.128H98.0144V7.616C98.0144 5.99467 98.3771 4.61867 99.1024 3.488C99.8277 2.35733 100.809 1.49333 102.046 0.895999C103.305 0.298666 104.702 -9.91737e-07 106.238 -9.91737e-07C107.774 -9.91737e-07 109.161 0.298666 110.398 0.895999C111.636 1.472 112.606 2.29333 113.31 3.36C114.036 4.40533 114.398 5.64267 114.398 7.072V7.392C114.398 8.82133 114.1 10.0373 113.502 11.04C112.926 12.0213 112.137 12.832 111.134 13.472C110.132 14.0907 108.99 14.6027 107.71 15.008L105.662 15.648C104.745 15.9253 104.03 16.2347 103.518 16.576C103.006 16.896 102.644 17.2587 102.43 17.664C102.238 18.048 102.142 18.5173 102.142 19.072V19.2H114.206V22.848H97.9504Z"/>
<path d="M0 39.2279V5.62785H13.344C15.392 5.62785 17.216 6.04385 18.816 6.87585C20.448 7.67585 21.712 8.82785 22.608 10.3318C23.536 11.8038 24 13.5799 24 15.6599V16.2839C24 18.3639 23.52 20.1559 22.56 21.6599C21.632 23.1639 20.368 24.3159 18.768 25.1159C17.168 25.9159 15.36 26.3159 13.344 26.3159H5.184V39.2279H0ZM5.184 21.6119H12.816C14.64 21.6119 16.096 21.1319 17.184 20.1719C18.272 19.2119 18.816 17.8999 18.816 16.2359V15.7559C18.816 14.0598 18.272 12.7318 17.184 11.7719C16.096 10.8118 14.64 10.3318 12.816 10.3318H5.184V21.6119Z"/>
<path d="M35.8942 39.8999C34.1982 39.8999 32.6782 39.6119 31.3342 39.0359C30.0222 38.4599 28.9663 37.6119 28.1663 36.4919C27.3983 35.3719 27.0142 34.0119 27.0142 32.4119C27.0142 30.7799 27.3983 29.4359 28.1663 28.3799C28.9663 27.2919 30.0382 26.4759 31.3822 25.9319C32.7582 25.3879 34.3102 25.1159 36.0382 25.1159H43.2383V23.5799C43.2383 22.2039 42.8223 21.0999 41.9902 20.2679C41.1582 19.4359 39.8782 19.0198 38.1502 19.0198C36.4542 19.0198 35.1582 19.4199 34.2622 20.2199C33.3662 21.0199 32.7743 22.0598 32.4863 23.3398L27.8783 21.8519C28.2623 20.5719 28.8702 19.4199 29.7022 18.3959C30.5662 17.3399 31.7022 16.4919 33.1102 15.8519C34.5182 15.2119 36.2142 14.8919 38.1982 14.8919C41.2703 14.8919 43.6863 15.6759 45.4463 17.2439C47.2063 18.8119 48.0863 21.0359 48.0863 23.9159V33.6599C48.0863 34.6199 48.5343 35.0999 49.4303 35.0999H51.4463V39.2279H47.7503C46.6303 39.2279 45.7183 38.9399 45.0143 38.3639C44.3103 37.7879 43.9583 37.0039 43.9583 36.0119V35.8679H43.2383C42.9823 36.3479 42.5983 36.9079 42.0863 37.5479C41.5743 38.1879 40.8222 38.7479 39.8302 39.2279C38.8382 39.6759 37.5262 39.8999 35.8942 39.8999ZM36.6143 35.8199C38.5983 35.8199 40.1982 35.2599 41.4142 34.1399C42.6302 32.9879 43.2383 31.4199 43.2383 29.4359V28.9559H36.3262C35.0142 28.9559 33.9582 29.2439 33.1582 29.8199C32.3582 30.3639 31.9583 31.1799 31.9583 32.2679C31.9583 33.3559 32.3742 34.2199 33.2062 34.8599C34.0382 35.4999 35.1743 35.8199 36.6143 35.8199Z"/>
<path d="M56.2534 39.2279V15.5639H61.1974V39.2279H56.2534ZM58.7494 12.3479C57.7894 12.3479 56.9734 12.0439 56.3014 11.4358C55.6614 10.7958 55.3414 9.97985 55.3414 8.98785C55.3414 7.99585 55.6614 7.19585 56.3014 6.58785C56.9734 5.94785 57.7894 5.62785 58.7494 5.62785C59.7414 5.62785 60.5574 5.94785 61.1974 6.58785C61.8374 7.19585 62.1574 7.99585 62.1574 8.98785C62.1574 9.97985 61.8374 10.7958 61.1974 11.4358C60.5574 12.0439 59.7414 12.3479 58.7494 12.3479Z"/>
<path d="M68.5346 39.2279V15.5639H73.3826V19.1159H74.1506C74.5986 18.1559 75.3986 17.2599 76.5506 16.4279C77.7026 15.5958 79.4146 15.1798 81.6866 15.1798C83.4786 15.1798 85.0626 15.5798 86.4386 16.3799C87.8466 17.1798 88.9506 18.3159 89.7506 19.7879C90.5506 21.2279 90.9506 22.9719 90.9506 25.0199V39.2279H86.0066V25.4039C86.0066 23.3559 85.4946 21.8519 84.4706 20.8919C83.4466 19.8999 82.0386 19.4039 80.2466 19.4039C78.1986 19.4039 76.5506 20.0759 75.3026 21.4199C74.0866 22.7639 73.4786 24.7158 73.4786 27.2759V39.2279H68.5346Z"/>
<path d="M134.055 39.8999C131.655 39.8999 129.511 39.3879 127.623 38.3639C125.735 37.3079 124.247 35.7719 123.159 33.7559C122.071 31.7399 121.527 29.2759 121.527 26.3639V18.4919C121.527 14.1079 122.727 10.7639 125.127 8.45985C127.527 6.12385 130.775 4.95585 134.871 4.95585C138.903 4.95585 142.007 6.05985 144.183 8.26785C146.359 10.4439 147.447 13.3719 147.447 17.0519V17.2919H142.311V16.9079C142.311 15.5319 142.039 14.2999 141.495 13.2118C140.951 12.0919 140.135 11.2119 139.047 10.5719C137.959 9.93185 136.567 9.61185 134.871 9.61185C132.311 9.61185 130.311 10.3959 128.871 11.9639C127.431 13.4999 126.711 15.6439 126.711 18.3959V26.4599C126.711 29.1799 127.431 31.3399 128.871 32.9399C130.311 34.5079 132.327 35.2919 134.919 35.2919C137.479 35.2919 139.351 34.5879 140.535 33.1799C141.719 31.7719 142.311 29.9479 142.311 27.7079V27.0839H133.287V22.6199H147.447V39.2279H142.647V35.8199H141.879C141.591 36.4279 141.159 37.0519 140.583 37.6919C140.039 38.3319 139.239 38.8599 138.183 39.2759C137.159 39.6919 135.783 39.8999 134.055 39.8999Z"/>
<path d="M161.613 39.8999C159.917 39.8999 158.397 39.6119 157.053 39.0359C155.741 38.4599 154.685 37.6119 153.885 36.4919C153.117 35.3719 152.733 34.0119 152.733 32.4119C152.733 30.7799 153.117 29.4359 153.885 28.3799C154.685 27.2919 155.757 26.4759 157.101 25.9319C158.477 25.3879 160.029 25.1159 161.757 25.1159H168.957V23.5799C168.957 22.2039 168.541 21.0999 167.709 20.2679C166.877 19.4359 165.597 19.0198 163.869 19.0198C162.173 19.0198 160.877 19.4199 159.981 20.2199C159.085 21.0199 158.493 22.0598 158.205 23.3398L153.597 21.8519C153.981 20.5719 154.589 19.4199 155.421 18.3959C156.285 17.3399 157.421 16.4919 158.829 15.8519C160.237 15.2119 161.933 14.8919 163.917 14.8919C166.989 14.8919 169.405 15.6759 171.165 17.2439C172.925 18.8119 173.805 21.0359 173.805 23.9159V33.6599C173.805 34.6199 174.253 35.0999 175.149 35.0999H177.165V39.2279H173.469C172.349 39.2279 171.437 38.9399 170.733 38.3639C170.029 37.7879 169.677 37.0039 169.677 36.0119V35.8679H168.957C168.701 36.3479 168.317 36.9079 167.805 37.5479C167.293 38.1879 166.541 38.7479 165.549 39.2279C164.557 39.6759 163.245 39.8999 161.613 39.8999ZM162.333 35.8199C164.317 35.8199 165.917 35.2599 167.133 34.1399C168.349 32.9879 168.957 31.4199 168.957 29.4359V28.9559H162.045C160.733 28.9559 159.677 29.2439 158.877 29.8199C158.077 30.3639 157.677 31.1799 157.677 32.2679C157.677 33.3559 158.093 34.2199 158.925 34.8599C159.757 35.4999 160.893 35.8199 162.333 35.8199Z"/>
<path d="M181.972 39.2279V15.5639H186.916V39.2279H181.972ZM184.468 12.3479C183.508 12.3479 182.692 12.0439 182.02 11.4358C181.38 10.7958 181.06 9.97985 181.06 8.98785C181.06 7.99585 181.38 7.19585 182.02 6.58785C182.692 5.94785 183.508 5.62785 184.468 5.62785C185.46 5.62785 186.276 5.94785 186.916 6.58785C187.556 7.19585 187.876 7.99585 187.876 8.98785C187.876 9.97985 187.556 10.7958 186.916 11.4358C186.276 12.0439 185.46 12.3479 184.468 12.3479Z"/>
<path d="M194.253 39.2279V15.5639H199.101V19.1159H199.869C200.317 18.1559 201.117 17.2599 202.269 16.4279C203.421 15.5958 205.133 15.1798 207.405 15.1798C209.197 15.1798 210.781 15.5798 212.157 16.3799C213.565 17.1798 214.669 18.3159 215.469 19.7879C216.269 21.2279 216.669 22.9719 216.669 25.0199V39.2279H211.725V25.4039C211.725 23.3559 211.213 21.8519 210.189 20.8919C209.165 19.8999 207.757 19.4039 205.965 19.4039C203.917 19.4039 202.269 20.0759 201.021 21.4199C199.805 22.7639 199.197 24.7158 199.197 27.2759V39.2279H194.253Z"/>
</mask>
<path d="M97.9504 22.848V20.16C97.9504 18.6027 98.2064 17.312 98.7184 16.288C99.2304 15.2427 99.9664 14.3893 100.926 13.728C101.908 13.0453 103.102 12.4907 104.51 12.064L106.654 11.392C107.444 11.136 108.105 10.8267 108.638 10.464C109.172 10.08 109.577 9.62133 109.854 9.088C110.153 8.55467 110.302 7.94667 110.302 7.264V7.136C110.302 6.06933 109.94 5.22667 109.214 4.608C108.489 3.968 107.497 3.648 106.238 3.648C105.001 3.648 103.998 3.98933 103.23 4.672C102.484 5.33333 102.11 6.29333 102.11 7.552V8.128H98.0144V7.616C98.0144 5.99467 98.3771 4.61867 99.1024 3.488C99.8277 2.35733 100.809 1.49333 102.046 0.895999C103.305 0.298666 104.702 -9.91737e-07 106.238 -9.91737e-07C107.774 -9.91737e-07 109.161 0.298666 110.398 0.895999C111.636 1.472 112.606 2.29333 113.31 3.36C114.036 4.40533 114.398 5.64267 114.398 7.072V7.392C114.398 8.82133 114.1 10.0373 113.502 11.04C112.926 12.0213 112.137 12.832 111.134 13.472C110.132 14.0907 108.99 14.6027 107.71 15.008L105.662 15.648C104.745 15.9253 104.03 16.2347 103.518 16.576C103.006 16.896 102.644 17.2587 102.43 17.664C102.238 18.048 102.142 18.5173 102.142 19.072V19.2H114.206V22.848H97.9504Z" fill="white"/>
<path d="M134.055 39.8999C131.655 39.8999 129.511 39.3879 127.623 38.3639C125.735 37.3079 124.247 35.7719 123.159 33.7559C122.071 31.7399 121.527 29.2759 121.527 26.3639V18.4919C121.527 14.1079 122.727 10.7639 125.127 8.45985C127.527 6.12385 130.775 4.95585 134.871 4.95585C138.903 4.95585 142.007 6.05985 144.183 8.26785C146.359 10.4439 147.447 13.3719 147.447 17.0519V17.2919H142.311V16.9079C142.311 15.5319 142.039 14.2999 141.495 13.2118C140.951 12.0919 140.135 11.2119 139.047 10.5719C137.959 9.93185 136.567 9.61185 134.871 9.61185C132.311 9.61185 130.311 10.3959 128.871 11.9639C127.431 13.4999 126.711 15.6439 126.711 18.3959V26.4599C126.711 29.1799 127.431 31.3399 128.871 32.9399C130.311 34.5079 132.327 35.2919 134.919 35.2919C137.479 35.2919 139.351 34.5879 140.535 33.1799C141.719 31.7719 142.311 29.9479 142.311 27.7079V27.0839H133.287V22.6199H147.447V39.2279H142.647V35.8199H141.879C141.591 36.4279 141.159 37.0519 140.583 37.6919C140.039 38.3319 139.239 38.8599 138.183 39.2759C137.159 39.6919 135.783 39.8999 134.055 39.8999Z" fill="white"/>
<path d="M161.613 39.8999C159.917 39.8999 158.397 39.6119 157.053 39.0359C155.741 38.4599 154.685 37.6119 153.885 36.4919C153.117 35.3719 152.733 34.0119 152.733 32.4119C152.733 30.7799 153.117 29.4359 153.885 28.3799C154.685 27.2919 155.757 26.4759 157.101 25.9319C158.477 25.3879 160.029 25.1159 161.757 25.1159H168.957V23.5799C168.957 22.2039 168.541 21.0999 167.709 20.2679C166.877 19.4359 165.597 19.0198 163.869 19.0198C162.173 19.0198 160.877 19.4199 159.981 20.2199C159.085 21.0199 158.493 22.0598 158.205 23.3398L153.597 21.8519C153.981 20.5719 154.589 19.4199 155.421 18.3959C156.285 17.3399 157.421 16.4919 158.829 15.8519C160.237 15.2119 161.933 14.8919 163.917 14.8919C166.989 14.8919 169.405 15.6759 171.165 17.2439C172.925 18.8119 173.805 21.0359 173.805 23.9159V33.6599C173.805 34.6199 174.253 35.0999 175.149 35.0999H177.165V39.2279H173.469C172.349 39.2279 171.437 38.9399 170.733 38.3639C170.029 37.7879 169.677 37.0039 169.677 36.0119V35.8679H168.957C168.701 36.3479 168.317 36.9079 167.805 37.5479C167.293 38.1879 166.541 38.7479 165.549 39.2279C164.557 39.6759 163.245 39.8999 161.613 39.8999ZM162.333 35.8199C164.317 35.8199 165.917 35.2599 167.133 34.1399C168.349 32.9879 168.957 31.4199 168.957 29.4359V28.9559H162.045C160.733 28.9559 159.677 29.2439 158.877 29.8199C158.077 30.3639 157.677 31.1799 157.677 32.2679C157.677 33.3559 158.093 34.2199 158.925 34.8599C159.757 35.4999 160.893 35.8199 162.333 35.8199Z" fill="white"/>
<path d="M181.972 39.2279V15.5639H186.916V39.2279H181.972ZM184.468 12.3479C183.508 12.3479 182.692 12.0439 182.02 11.4358C181.38 10.7958 181.06 9.97985 181.06 8.98785C181.06 7.99585 181.38 7.19585 182.02 6.58785C182.692 5.94785 183.508 5.62785 184.468 5.62785C185.46 5.62785 186.276 5.94785 186.916 6.58785C187.556 7.19585 187.876 7.99585 187.876 8.98785C187.876 9.97985 187.556 10.7958 186.916 11.4358C186.276 12.0439 185.46 12.3479 184.468 12.3479Z" fill="white"/>
<path d="M194.253 39.2279V15.5639H199.101V19.1159H199.869C200.317 18.1559 201.117 17.2599 202.269 16.4279C203.421 15.5958 205.133 15.1798 207.405 15.1798C209.197 15.1798 210.781 15.5798 212.157 16.3799C213.565 17.1798 214.669 18.3159 215.469 19.7879C216.269 21.2279 216.669 22.9719 216.669 25.0199V39.2279H211.725V25.4039C211.725 23.3559 211.213 21.8519 210.189 20.8919C209.165 19.8999 207.757 19.4039 205.965 19.4039C203.917 19.4039 202.269 20.0759 201.021 21.4199C199.805 22.7639 199.197 24.7158 199.197 27.2759V39.2279H194.253Z" fill="white"/>
<path d="M97.9504 22.848V20.16C97.9504 18.6027 98.2064 17.312 98.7184 16.288C99.2304 15.2427 99.9664 14.3893 100.926 13.728C101.908 13.0453 103.102 12.4907 104.51 12.064L106.654 11.392C107.444 11.136 108.105 10.8267 108.638 10.464C109.172 10.08 109.577 9.62133 109.854 9.088C110.153 8.55467 110.302 7.94667 110.302 7.264V7.136C110.302 6.06933 109.94 5.22667 109.214 4.608C108.489 3.968 107.497 3.648 106.238 3.648C105.001 3.648 103.998 3.98933 103.23 4.672C102.484 5.33333 102.11 6.29333 102.11 7.552V8.128H98.0144V7.616C98.0144 5.99467 98.3771 4.61867 99.1024 3.488C99.8277 2.35733 100.809 1.49333 102.046 0.895999C103.305 0.298666 104.702 -9.91737e-07 106.238 -9.91737e-07C107.774 -9.91737e-07 109.161 0.298666 110.398 0.895999C111.636 1.472 112.606 2.29333 113.31 3.36C114.036 4.40533 114.398 5.64267 114.398 7.072V7.392C114.398 8.82133 114.1 10.0373 113.502 11.04C112.926 12.0213 112.137 12.832 111.134 13.472C110.132 14.0907 108.99 14.6027 107.71 15.008L105.662 15.648C104.745 15.9253 104.03 16.2347 103.518 16.576C103.006 16.896 102.644 17.2587 102.43 17.664C102.238 18.048 102.142 18.5173 102.142 19.072V19.2H114.206V22.848H97.9504Z" stroke="white" stroke-width="2" mask="url(#path-1-inside-1_1541_2)"/>
<path d="M0 39.2279V5.62785H13.344C15.392 5.62785 17.216 6.04385 18.816 6.87585C20.448 7.67585 21.712 8.82785 22.608 10.3318C23.536 11.8038 24 13.5799 24 15.6599V16.2839C24 18.3639 23.52 20.1559 22.56 21.6599C21.632 23.1639 20.368 24.3159 18.768 25.1159C17.168 25.9159 15.36 26.3159 13.344 26.3159H5.184V39.2279H0ZM5.184 21.6119H12.816C14.64 21.6119 16.096 21.1319 17.184 20.1719C18.272 19.2119 18.816 17.8999 18.816 16.2359V15.7559C18.816 14.0598 18.272 12.7318 17.184 11.7719C16.096 10.8118 14.64 10.3318 12.816 10.3318H5.184V21.6119Z" stroke="white" stroke-width="2" mask="url(#path-1-inside-1_1541_2)"/>
<path d="M35.8942 39.8999C34.1982 39.8999 32.6782 39.6119 31.3342 39.0359C30.0222 38.4599 28.9663 37.6119 28.1663 36.4919C27.3983 35.3719 27.0142 34.0119 27.0142 32.4119C27.0142 30.7799 27.3983 29.4359 28.1663 28.3799C28.9663 27.2919 30.0382 26.4759 31.3822 25.9319C32.7582 25.3879 34.3102 25.1159 36.0382 25.1159H43.2383V23.5799C43.2383 22.2039 42.8223 21.0999 41.9902 20.2679C41.1582 19.4359 39.8782 19.0198 38.1502 19.0198C36.4542 19.0198 35.1582 19.4199 34.2622 20.2199C33.3662 21.0199 32.7743 22.0598 32.4863 23.3398L27.8783 21.8519C28.2623 20.5719 28.8702 19.4199 29.7022 18.3959C30.5662 17.3399 31.7022 16.4919 33.1102 15.8519C34.5182 15.2119 36.2142 14.8919 38.1982 14.8919C41.2703 14.8919 43.6863 15.6759 45.4463 17.2439C47.2063 18.8119 48.0863 21.0359 48.0863 23.9159V33.6599C48.0863 34.6199 48.5343 35.0999 49.4303 35.0999H51.4463V39.2279H47.7503C46.6303 39.2279 45.7183 38.9399 45.0143 38.3639C44.3103 37.7879 43.9583 37.0039 43.9583 36.0119V35.8679H43.2383C42.9823 36.3479 42.5983 36.9079 42.0863 37.5479C41.5743 38.1879 40.8222 38.7479 39.8302 39.2279C38.8382 39.6759 37.5262 39.8999 35.8942 39.8999ZM36.6143 35.8199C38.5983 35.8199 40.1982 35.2599 41.4142 34.1399C42.6302 32.9879 43.2383 31.4199 43.2383 29.4359V28.9559H36.3262C35.0142 28.9559 33.9582 29.2439 33.1582 29.8199C32.3582 30.3639 31.9583 31.1799 31.9583 32.2679C31.9583 33.3559 32.3742 34.2199 33.2062 34.8599C34.0382 35.4999 35.1743 35.8199 36.6143 35.8199Z" stroke="white" stroke-width="2" mask="url(#path-1-inside-1_1541_2)"/>
<path d="M56.2534 39.2279V15.5639H61.1974V39.2279H56.2534ZM58.7494 12.3479C57.7894 12.3479 56.9734 12.0439 56.3014 11.4358C55.6614 10.7958 55.3414 9.97985 55.3414 8.98785C55.3414 7.99585 55.6614 7.19585 56.3014 6.58785C56.9734 5.94785 57.7894 5.62785 58.7494 5.62785C59.7414 5.62785 60.5574 5.94785 61.1974 6.58785C61.8374 7.19585 62.1574 7.99585 62.1574 8.98785C62.1574 9.97985 61.8374 10.7958 61.1974 11.4358C60.5574 12.0439 59.7414 12.3479 58.7494 12.3479Z" stroke="white" stroke-width="2" mask="url(#path-1-inside-1_1541_2)"/>
<path d="M68.5346 39.2279V15.5639H73.3826V19.1159H74.1506C74.5986 18.1559 75.3986 17.2599 76.5506 16.4279C77.7026 15.5958 79.4146 15.1798 81.6866 15.1798C83.4786 15.1798 85.0626 15.5798 86.4386 16.3799C87.8466 17.1798 88.9506 18.3159 89.7506 19.7879C90.5506 21.2279 90.9506 22.9719 90.9506 25.0199V39.2279H86.0066V25.4039C86.0066 23.3559 85.4946 21.8519 84.4706 20.8919C83.4466 19.8999 82.0386 19.4039 80.2466 19.4039C78.1986 19.4039 76.5506 20.0759 75.3026 21.4199C74.0866 22.7639 73.4786 24.7158 73.4786 27.2759V39.2279H68.5346Z" stroke="white" stroke-width="2" mask="url(#path-1-inside-1_1541_2)"/>
<path d="M134.055 39.8999C131.655 39.8999 129.511 39.3879 127.623 38.3639C125.735 37.3079 124.247 35.7719 123.159 33.7559C122.071 31.7399 121.527 29.2759 121.527 26.3639V18.4919C121.527 14.1079 122.727 10.7639 125.127 8.45985C127.527 6.12385 130.775 4.95585 134.871 4.95585C138.903 4.95585 142.007 6.05985 144.183 8.26785C146.359 10.4439 147.447 13.3719 147.447 17.0519V17.2919H142.311V16.9079C142.311 15.5319 142.039 14.2999 141.495 13.2118C140.951 12.0919 140.135 11.2119 139.047 10.5719C137.959 9.93185 136.567 9.61185 134.871 9.61185C132.311 9.61185 130.311 10.3959 128.871 11.9639C127.431 13.4999 126.711 15.6439 126.711 18.3959V26.4599C126.711 29.1799 127.431 31.3399 128.871 32.9399C130.311 34.5079 132.327 35.2919 134.919 35.2919C137.479 35.2919 139.351 34.5879 140.535 33.1799C141.719 31.7719 142.311 29.9479 142.311 27.7079V27.0839H133.287V22.6199H147.447V39.2279H142.647V35.8199H141.879C141.591 36.4279 141.159 37.0519 140.583 37.6919C140.039 38.3319 139.239 38.8599 138.183 39.2759C137.159 39.6919 135.783 39.8999 134.055 39.8999Z" stroke="white" stroke-width="2" mask="url(#path-1-inside-1_1541_2)"/>
<path d="M161.613 39.8999C159.917 39.8999 158.397 39.6119 157.053 39.0359C155.741 38.4599 154.685 37.6119 153.885 36.4919C153.117 35.3719 152.733 34.0119 152.733 32.4119C152.733 30.7799 153.117 29.4359 153.885 28.3799C154.685 27.2919 155.757 26.4759 157.101 25.9319C158.477 25.3879 160.029 25.1159 161.757 25.1159H168.957V23.5799C168.957 22.2039 168.541 21.0999 167.709 20.2679C166.877 19.4359 165.597 19.0198 163.869 19.0198C162.173 19.0198 160.877 19.4199 159.981 20.2199C159.085 21.0199 158.493 22.0598 158.205 23.3398L153.597 21.8519C153.981 20.5719 154.589 19.4199 155.421 18.3959C156.285 17.3399 157.421 16.4919 158.829 15.8519C160.237 15.2119 161.933 14.8919 163.917 14.8919C166.989 14.8919 169.405 15.6759 171.165 17.2439C172.925 18.8119 173.805 21.0359 173.805 23.9159V33.6599C173.805 34.6199 174.253 35.0999 175.149 35.0999H177.165V39.2279H173.469C172.349 39.2279 171.437 38.9399 170.733 38.3639C170.029 37.7879 169.677 37.0039 169.677 36.0119V35.8679H168.957C168.701 36.3479 168.317 36.9079 167.805 37.5479C167.293 38.1879 166.541 38.7479 165.549 39.2279C164.557 39.6759 163.245 39.8999 161.613 39.8999ZM162.333 35.8199C164.317 35.8199 165.917 35.2599 167.133 34.1399C168.349 32.9879 168.957 31.4199 168.957 29.4359V28.9559H162.045C160.733 28.9559 159.677 29.2439 158.877 29.8199C158.077 30.3639 157.677 31.1799 157.677 32.2679C157.677 33.3559 158.093 34.2199 158.925 34.8599C159.757 35.4999 160.893 35.8199 162.333 35.8199Z" stroke="white" stroke-width="2" mask="url(#path-1-inside-1_1541_2)"/>
<path d="M181.972 39.2279V15.5639H186.916V39.2279H181.972ZM184.468 12.3479C183.508 12.3479 182.692 12.0439 182.02 11.4358C181.38 10.7958 181.06 9.97985 181.06 8.98785C181.06 7.99585 181.38 7.19585 182.02 6.58785C182.692 5.94785 183.508 5.62785 184.468 5.62785C185.46 5.62785 186.276 5.94785 186.916 6.58785C187.556 7.19585 187.876 7.99585 187.876 8.98785C187.876 9.97985 187.556 10.7958 186.916 11.4358C186.276 12.0439 185.46 12.3479 184.468 12.3479Z" stroke="white" stroke-width="2" mask="url(#path-1-inside-1_1541_2)"/>
<path d="M194.253 39.2279V15.5639H199.101V19.1159H199.869C200.317 18.1559 201.117 17.2599 202.269 16.4279C203.421 15.5958 205.133 15.1798 207.405 15.1798C209.197 15.1798 210.781 15.5798 212.157 16.3799C213.565 17.1798 214.669 18.3159 215.469 19.7879C216.269 21.2279 216.669 22.9719 216.669 25.0199V39.2279H211.725V25.4039C211.725 23.3559 211.213 21.8519 210.189 20.8919C209.165 19.8999 207.757 19.4039 205.965 19.4039C203.917 19.4039 202.269 20.0759 201.021 21.4199C199.805 22.7639 199.197 24.7158 199.197 27.2759V39.2279H194.253Z" stroke="white" stroke-width="2" mask="url(#path-1-inside-1_1541_2)"/>
</svg>
