<svg width="219" height="42" viewBox="0 0 219 42" fill="none" xmlns="http://www.w3.org/2000/svg">
<mask id="path-1-outside-1_1541_2" maskUnits="userSpaceOnUse" x="0" y="3.8147e-06" width="219" height="42" fill="black">
<rect fill="white" y="3.8147e-06" width="219" height="42"/>
<path d="M98.9504 23.848V21.16C98.9504 19.6027 99.2064 18.312 99.7184 17.288C100.23 16.2427 100.966 15.3893 101.926 14.728C102.908 14.0453 104.102 13.4907 105.51 13.064L107.654 12.392C108.444 12.136 109.105 11.8267 109.638 11.464C110.172 11.08 110.577 10.6213 110.854 10.088C111.153 9.55467 111.302 8.94667 111.302 8.264V8.136C111.302 7.06933 110.94 6.22667 110.214 5.608C109.489 4.968 108.497 4.648 107.238 4.648C106.001 4.648 104.998 4.98933 104.23 5.672C103.484 6.33333 103.11 7.29333 103.11 8.552V9.128H99.0144V8.616C99.0144 6.99467 99.3771 5.61867 100.102 4.488C100.828 3.35733 101.809 2.49333 103.046 1.896C104.305 1.29867 105.702 0.999999 107.238 0.999999C108.774 0.999999 110.161 1.29867 111.398 1.896C112.636 2.472 113.606 3.29333 114.31 4.36C115.036 5.40533 115.398 6.64267 115.398 8.072V8.392C115.398 9.82133 115.1 11.0373 114.502 12.04C113.926 13.0213 113.137 13.832 112.134 14.472C111.132 15.0907 109.99 15.6027 108.71 16.008L106.662 16.648C105.745 16.9253 105.03 17.2347 104.518 17.576C104.006 17.896 103.644 18.2587 103.43 18.664C103.238 19.048 103.142 19.5173 103.142 20.072V20.2H115.206V23.848H98.9504Z"/>
<path d="M1 40.2279V6.62785H14.344C16.392 6.62785 18.216 7.04385 19.816 7.87585C21.448 8.67585 22.712 9.82785 23.608 11.3318C24.536 12.8038 25 14.5799 25 16.6599V17.2839C25 19.3639 24.52 21.1559 23.56 22.6599C22.632 24.1639 21.368 25.3159 19.768 26.1159C18.168 26.9159 16.36 27.3159 14.344 27.3159H6.184V40.2279H1ZM6.184 22.6119H13.816C15.64 22.6119 17.096 22.1319 18.184 21.1719C19.272 20.2119 19.816 18.8999 19.816 17.2359V16.7559C19.816 15.0598 19.272 13.7318 18.184 12.7719C17.096 11.8118 15.64 11.3318 13.816 11.3318H6.184V22.6119Z"/>
<path d="M36.8942 40.8999C35.1982 40.8999 33.6782 40.6119 32.3342 40.0359C31.0222 39.4599 29.9663 38.6119 29.1663 37.4919C28.3983 36.3719 28.0142 35.0119 28.0142 33.4119C28.0142 31.7799 28.3983 30.4359 29.1663 29.3799C29.9663 28.2919 31.0382 27.4759 32.3822 26.9319C33.7582 26.3879 35.3102 26.1159 37.0382 26.1159H44.2383V24.5799C44.2383 23.2039 43.8223 22.0999 42.9902 21.2679C42.1582 20.4359 40.8782 20.0198 39.1502 20.0198C37.4542 20.0198 36.1582 20.4199 35.2622 21.2199C34.3662 22.0199 33.7743 23.0598 33.4863 24.3398L28.8783 22.8519C29.2623 21.5719 29.8702 20.4199 30.7022 19.3959C31.5662 18.3399 32.7022 17.4919 34.1102 16.8519C35.5182 16.2119 37.2142 15.8919 39.1982 15.8919C42.2703 15.8919 44.6863 16.6759 46.4463 18.2439C48.2063 19.8119 49.0863 22.0359 49.0863 24.9159V34.6599C49.0863 35.6199 49.5343 36.0999 50.4303 36.0999H52.4463V40.2279H48.7503C47.6303 40.2279 46.7183 39.9399 46.0143 39.3639C45.3103 38.7879 44.9583 38.0039 44.9583 37.0119V36.8679H44.2383C43.9823 37.3479 43.5983 37.9079 43.0863 38.5479C42.5743 39.1879 41.8222 39.7479 40.8302 40.2279C39.8382 40.6759 38.5262 40.8999 36.8942 40.8999ZM37.6143 36.8199C39.5983 36.8199 41.1982 36.2599 42.4142 35.1399C43.6302 33.9879 44.2383 32.4199 44.2383 30.4359V29.9559H37.3262C36.0142 29.9559 34.9582 30.2439 34.1582 30.8199C33.3582 31.3639 32.9583 32.1799 32.9583 33.2679C32.9583 34.3559 33.3742 35.2199 34.2062 35.8599C35.0382 36.4999 36.1743 36.8199 37.6143 36.8199Z"/>
<path d="M57.2534 40.2279V16.5639H62.1974V40.2279H57.2534ZM59.7494 13.3479C58.7894 13.3479 57.9734 13.0439 57.3014 12.4358C56.6614 11.7958 56.3414 10.9798 56.3414 9.98785C56.3414 8.99585 56.6614 8.19585 57.3014 7.58785C57.9734 6.94785 58.7894 6.62785 59.7494 6.62785C60.7414 6.62785 61.5574 6.94785 62.1974 7.58785C62.8374 8.19585 63.1574 8.99585 63.1574 9.98785C63.1574 10.9798 62.8374 11.7958 62.1974 12.4358C61.5574 13.0439 60.7414 13.3479 59.7494 13.3479Z"/>
<path d="M69.5346 40.2279V16.5639H74.3826V20.1159H75.1506C75.5986 19.1559 76.3986 18.2599 77.5506 17.4279C78.7026 16.5958 80.4146 16.1798 82.6866 16.1798C84.4786 16.1798 86.0626 16.5798 87.4386 17.3799C88.8466 18.1798 89.9506 19.3159 90.7506 20.7879C91.5506 22.2279 91.9506 23.9719 91.9506 26.0199V40.2279H87.0066V26.4039C87.0066 24.3559 86.4946 22.8519 85.4706 21.8919C84.4466 20.8999 83.0386 20.4039 81.2466 20.4039C79.1986 20.4039 77.5506 21.0759 76.3026 22.4199C75.0866 23.7639 74.4786 25.7158 74.4786 28.2759V40.2279H69.5346Z"/>
<path d="M135.055 40.8999C132.655 40.8999 130.511 40.3879 128.623 39.3639C126.735 38.3079 125.247 36.7719 124.159 34.7559C123.071 32.7399 122.527 30.2759 122.527 27.3639V19.4919C122.527 15.1079 123.727 11.7639 126.127 9.45985C128.527 7.12385 131.775 5.95585 135.871 5.95585C139.903 5.95585 143.007 7.05985 145.183 9.26785C147.359 11.4439 148.447 14.3719 148.447 18.0519V18.2919H143.311V17.9079C143.311 16.5319 143.039 15.2999 142.495 14.2118C141.951 13.0919 141.135 12.2119 140.047 11.5719C138.959 10.9319 137.567 10.6118 135.871 10.6118C133.311 10.6118 131.311 11.3959 129.871 12.9639C128.431 14.4999 127.711 16.6439 127.711 19.3959V27.4599C127.711 30.1799 128.431 32.3399 129.871 33.9399C131.311 35.5079 133.327 36.2919 135.919 36.2919C138.479 36.2919 140.351 35.5879 141.535 34.1799C142.719 32.7719 143.311 30.9479 143.311 28.7079V28.0839H134.287V23.6199H148.447V40.2279H143.647V36.8199H142.879C142.591 37.4279 142.159 38.0519 141.583 38.6919C141.039 39.3319 140.239 39.8599 139.183 40.2759C138.159 40.6919 136.783 40.8999 135.055 40.8999Z"/>
<path d="M162.613 40.8999C160.917 40.8999 159.397 40.6119 158.053 40.0359C156.741 39.4599 155.685 38.6119 154.885 37.4919C154.117 36.3719 153.733 35.0119 153.733 33.4119C153.733 31.7799 154.117 30.4359 154.885 29.3799C155.685 28.2919 156.757 27.4759 158.101 26.9319C159.477 26.3879 161.029 26.1159 162.757 26.1159H169.957V24.5799C169.957 23.2039 169.541 22.0999 168.709 21.2679C167.877 20.4359 166.597 20.0198 164.869 20.0198C163.173 20.0198 161.877 20.4199 160.981 21.2199C160.085 22.0199 159.493 23.0598 159.205 24.3398L154.597 22.8519C154.981 21.5719 155.589 20.4199 156.421 19.3959C157.285 18.3399 158.421 17.4919 159.829 16.8519C161.237 16.2119 162.933 15.8919 164.917 15.8919C167.989 15.8919 170.405 16.6759 172.165 18.2439C173.925 19.8119 174.805 22.0359 174.805 24.9159V34.6599C174.805 35.6199 175.253 36.0999 176.149 36.0999H178.165V40.2279H174.469C173.349 40.2279 172.437 39.9399 171.733 39.3639C171.029 38.7879 170.677 38.0039 170.677 37.0119V36.8679H169.957C169.701 37.3479 169.317 37.9079 168.805 38.5479C168.293 39.1879 167.541 39.7479 166.549 40.2279C165.557 40.6759 164.245 40.8999 162.613 40.8999ZM163.333 36.8199C165.317 36.8199 166.917 36.2599 168.133 35.1399C169.349 33.9879 169.957 32.4199 169.957 30.4359V29.9559H163.045C161.733 29.9559 160.677 30.2439 159.877 30.8199C159.077 31.3639 158.677 32.1799 158.677 33.2679C158.677 34.3559 159.093 35.2199 159.925 35.8599C160.757 36.4999 161.893 36.8199 163.333 36.8199Z"/>
<path d="M182.972 40.2279V16.5639H187.916V40.2279H182.972ZM185.468 13.3479C184.508 13.3479 183.692 13.0439 183.02 12.4358C182.38 11.7958 182.06 10.9798 182.06 9.98785C182.06 8.99585 182.38 8.19585 183.02 7.58785C183.692 6.94785 184.508 6.62785 185.468 6.62785C186.46 6.62785 187.276 6.94785 187.916 7.58785C188.556 8.19585 188.876 8.99585 188.876 9.98785C188.876 10.9798 188.556 11.7958 187.916 12.4358C187.276 13.0439 186.46 13.3479 185.468 13.3479Z"/>
<path d="M195.253 40.2279V16.5639H200.101V20.1159H200.869C201.317 19.1559 202.117 18.2599 203.269 17.4279C204.421 16.5958 206.133 16.1798 208.405 16.1798C210.197 16.1798 211.781 16.5798 213.157 17.3799C214.565 18.1798 215.669 19.3159 216.469 20.7879C217.269 22.2279 217.669 23.9719 217.669 26.0199V40.2279H212.725V26.4039C212.725 24.3559 212.213 22.8519 211.189 21.8919C210.165 20.8999 208.757 20.4039 206.965 20.4039C204.917 20.4039 203.269 21.0759 202.021 22.4199C200.805 23.7639 200.197 25.7158 200.197 28.2759V40.2279H195.253Z"/>
</mask>
<path d="M98.9504 23.848V21.16C98.9504 19.6027 99.2064 18.312 99.7184 17.288C100.23 16.2427 100.966 15.3893 101.926 14.728C102.908 14.0453 104.102 13.4907 105.51 13.064L107.654 12.392C108.444 12.136 109.105 11.8267 109.638 11.464C110.172 11.08 110.577 10.6213 110.854 10.088C111.153 9.55467 111.302 8.94667 111.302 8.264V8.136C111.302 7.06933 110.94 6.22667 110.214 5.608C109.489 4.968 108.497 4.648 107.238 4.648C106.001 4.648 104.998 4.98933 104.23 5.672C103.484 6.33333 103.11 7.29333 103.11 8.552V9.128H99.0144V8.616C99.0144 6.99467 99.3771 5.61867 100.102 4.488C100.828 3.35733 101.809 2.49333 103.046 1.896C104.305 1.29867 105.702 0.999999 107.238 0.999999C108.774 0.999999 110.161 1.29867 111.398 1.896C112.636 2.472 113.606 3.29333 114.31 4.36C115.036 5.40533 115.398 6.64267 115.398 8.072V8.392C115.398 9.82133 115.1 11.0373 114.502 12.04C113.926 13.0213 113.137 13.832 112.134 14.472C111.132 15.0907 109.99 15.6027 108.71 16.008L106.662 16.648C105.745 16.9253 105.03 17.2347 104.518 17.576C104.006 17.896 103.644 18.2587 103.43 18.664C103.238 19.048 103.142 19.5173 103.142 20.072V20.2H115.206V23.848H98.9504Z" fill="white"/>
<path d="M135.055 40.8999C132.655 40.8999 130.511 40.3879 128.623 39.3639C126.735 38.3079 125.247 36.7719 124.159 34.7559C123.071 32.7399 122.527 30.2759 122.527 27.3639V19.4919C122.527 15.1079 123.727 11.7639 126.127 9.45985C128.527 7.12385 131.775 5.95585 135.871 5.95585C139.903 5.95585 143.007 7.05985 145.183 9.26785C147.359 11.4439 148.447 14.3719 148.447 18.0519V18.2919H143.311V17.9079C143.311 16.5319 143.039 15.2999 142.495 14.2118C141.951 13.0919 141.135 12.2119 140.047 11.5719C138.959 10.9319 137.567 10.6118 135.871 10.6118C133.311 10.6118 131.311 11.3959 129.871 12.9639C128.431 14.4999 127.711 16.6439 127.711 19.3959V27.4599C127.711 30.1799 128.431 32.3399 129.871 33.9399C131.311 35.5079 133.327 36.2919 135.919 36.2919C138.479 36.2919 140.351 35.5879 141.535 34.1799C142.719 32.7719 143.311 30.9479 143.311 28.7079V28.0839H134.287V23.6199H148.447V40.2279H143.647V36.8199H142.879C142.591 37.4279 142.159 38.0519 141.583 38.6919C141.039 39.3319 140.239 39.8599 139.183 40.2759C138.159 40.6919 136.783 40.8999 135.055 40.8999Z" fill="white"/>
<path d="M162.613 40.8999C160.917 40.8999 159.397 40.6119 158.053 40.0359C156.741 39.4599 155.685 38.6119 154.885 37.4919C154.117 36.3719 153.733 35.0119 153.733 33.4119C153.733 31.7799 154.117 30.4359 154.885 29.3799C155.685 28.2919 156.757 27.4759 158.101 26.9319C159.477 26.3879 161.029 26.1159 162.757 26.1159H169.957V24.5799C169.957 23.2039 169.541 22.0999 168.709 21.2679C167.877 20.4359 166.597 20.0198 164.869 20.0198C163.173 20.0198 161.877 20.4199 160.981 21.2199C160.085 22.0199 159.493 23.0598 159.205 24.3398L154.597 22.8519C154.981 21.5719 155.589 20.4199 156.421 19.3959C157.285 18.3399 158.421 17.4919 159.829 16.8519C161.237 16.2119 162.933 15.8919 164.917 15.8919C167.989 15.8919 170.405 16.6759 172.165 18.2439C173.925 19.8119 174.805 22.0359 174.805 24.9159V34.6599C174.805 35.6199 175.253 36.0999 176.149 36.0999H178.165V40.2279H174.469C173.349 40.2279 172.437 39.9399 171.733 39.3639C171.029 38.7879 170.677 38.0039 170.677 37.0119V36.8679H169.957C169.701 37.3479 169.317 37.9079 168.805 38.5479C168.293 39.1879 167.541 39.7479 166.549 40.2279C165.557 40.6759 164.245 40.8999 162.613 40.8999ZM163.333 36.8199C165.317 36.8199 166.917 36.2599 168.133 35.1399C169.349 33.9879 169.957 32.4199 169.957 30.4359V29.9559H163.045C161.733 29.9559 160.677 30.2439 159.877 30.8199C159.077 31.3639 158.677 32.1799 158.677 33.2679C158.677 34.3559 159.093 35.2199 159.925 35.8599C160.757 36.4999 161.893 36.8199 163.333 36.8199Z" fill="white"/>
<path d="M182.972 40.2279V16.5639H187.916V40.2279H182.972ZM185.468 13.3479C184.508 13.3479 183.692 13.0439 183.02 12.4358C182.38 11.7958 182.06 10.9798 182.06 9.98785C182.06 8.99585 182.38 8.19585 183.02 7.58785C183.692 6.94785 184.508 6.62785 185.468 6.62785C186.46 6.62785 187.276 6.94785 187.916 7.58785C188.556 8.19585 188.876 8.99585 188.876 9.98785C188.876 10.9798 188.556 11.7958 187.916 12.4358C187.276 13.0439 186.46 13.3479 185.468 13.3479Z" fill="white"/>
<path d="M195.253 40.2279V16.5639H200.101V20.1159H200.869C201.317 19.1559 202.117 18.2599 203.269 17.4279C204.421 16.5958 206.133 16.1798 208.405 16.1798C210.197 16.1798 211.781 16.5798 213.157 17.3799C214.565 18.1798 215.669 19.3159 216.469 20.7879C217.269 22.2279 217.669 23.9719 217.669 26.0199V40.2279H212.725V26.4039C212.725 24.3559 212.213 22.8519 211.189 21.8919C210.165 20.8999 208.757 20.4039 206.965 20.4039C204.917 20.4039 203.269 21.0759 202.021 22.4199C200.805 23.7639 200.197 25.7158 200.197 28.2759V40.2279H195.253Z" fill="white"/>
<path d="M98.9504 23.848V21.16C98.9504 19.6027 99.2064 18.312 99.7184 17.288C100.23 16.2427 100.966 15.3893 101.926 14.728C102.908 14.0453 104.102 13.4907 105.51 13.064L107.654 12.392C108.444 12.136 109.105 11.8267 109.638 11.464C110.172 11.08 110.577 10.6213 110.854 10.088C111.153 9.55467 111.302 8.94667 111.302 8.264V8.136C111.302 7.06933 110.94 6.22667 110.214 5.608C109.489 4.968 108.497 4.648 107.238 4.648C106.001 4.648 104.998 4.98933 104.23 5.672C103.484 6.33333 103.11 7.29333 103.11 8.552V9.128H99.0144V8.616C99.0144 6.99467 99.3771 5.61867 100.102 4.488C100.828 3.35733 101.809 2.49333 103.046 1.896C104.305 1.29867 105.702 0.999999 107.238 0.999999C108.774 0.999999 110.161 1.29867 111.398 1.896C112.636 2.472 113.606 3.29333 114.31 4.36C115.036 5.40533 115.398 6.64267 115.398 8.072V8.392C115.398 9.82133 115.1 11.0373 114.502 12.04C113.926 13.0213 113.137 13.832 112.134 14.472C111.132 15.0907 109.99 15.6027 108.71 16.008L106.662 16.648C105.745 16.9253 105.03 17.2347 104.518 17.576C104.006 17.896 103.644 18.2587 103.43 18.664C103.238 19.048 103.142 19.5173 103.142 20.072V20.2H115.206V23.848H98.9504Z" stroke="white" stroke-width="2" mask="url(#path-1-outside-1_1541_2)"/>
<path d="M1 40.2279V6.62785H14.344C16.392 6.62785 18.216 7.04385 19.816 7.87585C21.448 8.67585 22.712 9.82785 23.608 11.3318C24.536 12.8038 25 14.5799 25 16.6599V17.2839C25 19.3639 24.52 21.1559 23.56 22.6599C22.632 24.1639 21.368 25.3159 19.768 26.1159C18.168 26.9159 16.36 27.3159 14.344 27.3159H6.184V40.2279H1ZM6.184 22.6119H13.816C15.64 22.6119 17.096 22.1319 18.184 21.1719C19.272 20.2119 19.816 18.8999 19.816 17.2359V16.7559C19.816 15.0598 19.272 13.7318 18.184 12.7719C17.096 11.8118 15.64 11.3318 13.816 11.3318H6.184V22.6119Z" stroke="white" stroke-width="2" mask="url(#path-1-outside-1_1541_2)"/>
<path d="M36.8942 40.8999C35.1982 40.8999 33.6782 40.6119 32.3342 40.0359C31.0222 39.4599 29.9663 38.6119 29.1663 37.4919C28.3983 36.3719 28.0142 35.0119 28.0142 33.4119C28.0142 31.7799 28.3983 30.4359 29.1663 29.3799C29.9663 28.2919 31.0382 27.4759 32.3822 26.9319C33.7582 26.3879 35.3102 26.1159 37.0382 26.1159H44.2383V24.5799C44.2383 23.2039 43.8223 22.0999 42.9902 21.2679C42.1582 20.4359 40.8782 20.0198 39.1502 20.0198C37.4542 20.0198 36.1582 20.4199 35.2622 21.2199C34.3662 22.0199 33.7743 23.0598 33.4863 24.3398L28.8783 22.8519C29.2623 21.5719 29.8702 20.4199 30.7022 19.3959C31.5662 18.3399 32.7022 17.4919 34.1102 16.8519C35.5182 16.2119 37.2142 15.8919 39.1982 15.8919C42.2703 15.8919 44.6863 16.6759 46.4463 18.2439C48.2063 19.8119 49.0863 22.0359 49.0863 24.9159V34.6599C49.0863 35.6199 49.5343 36.0999 50.4303 36.0999H52.4463V40.2279H48.7503C47.6303 40.2279 46.7183 39.9399 46.0143 39.3639C45.3103 38.7879 44.9583 38.0039 44.9583 37.0119V36.8679H44.2383C43.9823 37.3479 43.5983 37.9079 43.0863 38.5479C42.5743 39.1879 41.8222 39.7479 40.8302 40.2279C39.8382 40.6759 38.5262 40.8999 36.8942 40.8999ZM37.6143 36.8199C39.5983 36.8199 41.1982 36.2599 42.4142 35.1399C43.6302 33.9879 44.2383 32.4199 44.2383 30.4359V29.9559H37.3262C36.0142 29.9559 34.9582 30.2439 34.1582 30.8199C33.3582 31.3639 32.9583 32.1799 32.9583 33.2679C32.9583 34.3559 33.3742 35.2199 34.2062 35.8599C35.0382 36.4999 36.1743 36.8199 37.6143 36.8199Z" stroke="white" stroke-width="2" mask="url(#path-1-outside-1_1541_2)"/>
<path d="M57.2534 40.2279V16.5639H62.1974V40.2279H57.2534ZM59.7494 13.3479C58.7894 13.3479 57.9734 13.0439 57.3014 12.4358C56.6614 11.7958 56.3414 10.9798 56.3414 9.98785C56.3414 8.99585 56.6614 8.19585 57.3014 7.58785C57.9734 6.94785 58.7894 6.62785 59.7494 6.62785C60.7414 6.62785 61.5574 6.94785 62.1974 7.58785C62.8374 8.19585 63.1574 8.99585 63.1574 9.98785C63.1574 10.9798 62.8374 11.7958 62.1974 12.4358C61.5574 13.0439 60.7414 13.3479 59.7494 13.3479Z" stroke="white" stroke-width="2" mask="url(#path-1-outside-1_1541_2)"/>
<path d="M69.5346 40.2279V16.5639H74.3826V20.1159H75.1506C75.5986 19.1559 76.3986 18.2599 77.5506 17.4279C78.7026 16.5958 80.4146 16.1798 82.6866 16.1798C84.4786 16.1798 86.0626 16.5798 87.4386 17.3799C88.8466 18.1798 89.9506 19.3159 90.7506 20.7879C91.5506 22.2279 91.9506 23.9719 91.9506 26.0199V40.2279H87.0066V26.4039C87.0066 24.3559 86.4946 22.8519 85.4706 21.8919C84.4466 20.8999 83.0386 20.4039 81.2466 20.4039C79.1986 20.4039 77.5506 21.0759 76.3026 22.4199C75.0866 23.7639 74.4786 25.7158 74.4786 28.2759V40.2279H69.5346Z" stroke="white" stroke-width="2" mask="url(#path-1-outside-1_1541_2)"/>
<path d="M135.055 40.8999C132.655 40.8999 130.511 40.3879 128.623 39.3639C126.735 38.3079 125.247 36.7719 124.159 34.7559C123.071 32.7399 122.527 30.2759 122.527 27.3639V19.4919C122.527 15.1079 123.727 11.7639 126.127 9.45985C128.527 7.12385 131.775 5.95585 135.871 5.95585C139.903 5.95585 143.007 7.05985 145.183 9.26785C147.359 11.4439 148.447 14.3719 148.447 18.0519V18.2919H143.311V17.9079C143.311 16.5319 143.039 15.2999 142.495 14.2118C141.951 13.0919 141.135 12.2119 140.047 11.5719C138.959 10.9319 137.567 10.6118 135.871 10.6118C133.311 10.6118 131.311 11.3959 129.871 12.9639C128.431 14.4999 127.711 16.6439 127.711 19.3959V27.4599C127.711 30.1799 128.431 32.3399 129.871 33.9399C131.311 35.5079 133.327 36.2919 135.919 36.2919C138.479 36.2919 140.351 35.5879 141.535 34.1799C142.719 32.7719 143.311 30.9479 143.311 28.7079V28.0839H134.287V23.6199H148.447V40.2279H143.647V36.8199H142.879C142.591 37.4279 142.159 38.0519 141.583 38.6919C141.039 39.3319 140.239 39.8599 139.183 40.2759C138.159 40.6919 136.783 40.8999 135.055 40.8999Z" stroke="white" stroke-width="2" mask="url(#path-1-outside-1_1541_2)"/>
<path d="M162.613 40.8999C160.917 40.8999 159.397 40.6119 158.053 40.0359C156.741 39.4599 155.685 38.6119 154.885 37.4919C154.117 36.3719 153.733 35.0119 153.733 33.4119C153.733 31.7799 154.117 30.4359 154.885 29.3799C155.685 28.2919 156.757 27.4759 158.101 26.9319C159.477 26.3879 161.029 26.1159 162.757 26.1159H169.957V24.5799C169.957 23.2039 169.541 22.0999 168.709 21.2679C167.877 20.4359 166.597 20.0198 164.869 20.0198C163.173 20.0198 161.877 20.4199 160.981 21.2199C160.085 22.0199 159.493 23.0598 159.205 24.3398L154.597 22.8519C154.981 21.5719 155.589 20.4199 156.421 19.3959C157.285 18.3399 158.421 17.4919 159.829 16.8519C161.237 16.2119 162.933 15.8919 164.917 15.8919C167.989 15.8919 170.405 16.6759 172.165 18.2439C173.925 19.8119 174.805 22.0359 174.805 24.9159V34.6599C174.805 35.6199 175.253 36.0999 176.149 36.0999H178.165V40.2279H174.469C173.349 40.2279 172.437 39.9399 171.733 39.3639C171.029 38.7879 170.677 38.0039 170.677 37.0119V36.8679H169.957C169.701 37.3479 169.317 37.9079 168.805 38.5479C168.293 39.1879 167.541 39.7479 166.549 40.2279C165.557 40.6759 164.245 40.8999 162.613 40.8999ZM163.333 36.8199C165.317 36.8199 166.917 36.2599 168.133 35.1399C169.349 33.9879 169.957 32.4199 169.957 30.4359V29.9559H163.045C161.733 29.9559 160.677 30.2439 159.877 30.8199C159.077 31.3639 158.677 32.1799 158.677 33.2679C158.677 34.3559 159.093 35.2199 159.925 35.8599C160.757 36.4999 161.893 36.8199 163.333 36.8199Z" stroke="white" stroke-width="2" mask="url(#path-1-outside-1_1541_2)"/>
<path d="M182.972 40.2279V16.5639H187.916V40.2279H182.972ZM185.468 13.3479C184.508 13.3479 183.692 13.0439 183.02 12.4358C182.38 11.7958 182.06 10.9798 182.06 9.98785C182.06 8.99585 182.38 8.19585 183.02 7.58785C183.692 6.94785 184.508 6.62785 185.468 6.62785C186.46 6.62785 187.276 6.94785 187.916 7.58785C188.556 8.19585 188.876 8.99585 188.876 9.98785C188.876 10.9798 188.556 11.7958 187.916 12.4358C187.276 13.0439 186.46 13.3479 185.468 13.3479Z" stroke="white" stroke-width="2" mask="url(#path-1-outside-1_1541_2)"/>
<path d="M195.253 40.2279V16.5639H200.101V20.1159H200.869C201.317 19.1559 202.117 18.2599 203.269 17.4279C204.421 16.5958 206.133 16.1798 208.405 16.1798C210.197 16.1798 211.781 16.5798 213.157 17.3799C214.565 18.1798 215.669 19.3159 216.469 20.7879C217.269 22.2279 217.669 23.9719 217.669 26.0199V40.2279H212.725V26.4039C212.725 24.3559 212.213 22.8519 211.189 21.8919C210.165 20.8999 208.757 20.4039 206.965 20.4039C204.917 20.4039 203.269 21.0759 202.021 22.4199C200.805 23.7639 200.197 25.7158 200.197 28.2759V40.2279H195.253Z" stroke="white" stroke-width="2" mask="url(#path-1-outside-1_1541_2)"/>
</svg>
